<?xml version="1.0" encoding="UTF-8"?>
<!DOCTYPE svg PUBLIC "-//W3C//DTD SVG 1.1//EN" "http://www.w3.org/Graphics/SVG/1.1/DTD/svg11.dtd">
<!-- Creator: CorelDRAW X8 -->
<svg xmlns="http://www.w3.org/2000/svg" xml:space="preserve" width="2500px" height="2500px" version="1.1" style="shape-rendering:geometricPrecision; text-rendering:geometricPrecision; image-rendering:optimizeQuality; fill-rule:evenodd; clip-rule:evenodd"
viewBox="0 0 2500 2500"
 xmlns:xlink="http://www.w3.org/1999/xlink">
 <defs>
  <style type="text/css">
   <![CDATA[
    .fil223 {fill:#004C48}
    .fil221 {fill:#036F96}
    .fil220 {fill:#046F96}
    .fil219 {fill:#047097}
    .fil218 {fill:#057097}
    .fil217 {fill:#067097}
    .fil216 {fill:#077197}
    .fil215 {fill:#077198}
    .fil214 {fill:#087198}
    .fil213 {fill:#097198}
    .fil212 {fill:#0A7299}
    .fil211 {fill:#0B7299}
    .fil210 {fill:#0C7399}
    .fil209 {fill:#0C739A}
    .fil208 {fill:#0D739A}
    .fil207 {fill:#0E749A}
    .fil206 {fill:#0F749B}
    .fil205 {fill:#10749B}
    .fil204 {fill:#11759C}
    .fil203 {fill:#12759C}
    .fil202 {fill:#13769C}
    .fil201 {fill:#14769D}
    .fil200 {fill:#15769D}
    .fil199 {fill:#15779D}
    .fil198 {fill:#16779E}
    .fil197 {fill:#17779E}
    .fil196 {fill:#18789E}
    .fil195 {fill:#19789F}
    .fil194 {fill:#1A789F}
    .fil193 {fill:#1A799F}
    .fil192 {fill:#1B79A0}
    .fil191 {fill:#1C79A0}
    .fil190 {fill:#1D7AA0}
    .fil189 {fill:#1E7AA1}
    .fil188 {fill:#1F7AA1}
    .fil187 {fill:#1F7BA1}
    .fil186 {fill:#207BA2}
    .fil185 {fill:#217BA2}
    .fil184 {fill:#227CA2}
    .fil183 {fill:#237CA3}
    .fil182 {fill:#247DA3}
    .fil181 {fill:#257DA3}
    .fil180 {fill:#257DA4}
    .fil179 {fill:#267DA4}
    .fil178 {fill:#277EA4}
    .fil177 {fill:#277EA5}
    .fil176 {fill:#287EA5}
    .fil175 {fill:#297FA5}
    .fil174 {fill:#2A7FA5}
    .fil173 {fill:#2A7FA6}
    .fil172 {fill:#2B80A6}
    .fil171 {fill:#2C80A6}
    .fil170 {fill:#2D80A7}
    .fil169 {fill:#2D81A7}
    .fil168 {fill:#2E81A7}
    .fil167 {fill:#2F81A7}
    .fil166 {fill:#2F81A8}
    .fil165 {fill:#3082A8}
    .fil164 {fill:#3182A8}
    .fil163 {fill:#3282A9}
    .fil162 {fill:#3283A9}
    .fil161 {fill:#3383A9}
    .fil160 {fill:#3483A9}
    .fil159 {fill:#3584AA}
    .fil158 {fill:#3684AA}
    .fil157 {fill:#3784AB}
    .fil156 {fill:#3885AB}
    .fil155 {fill:#3985AB}
    .fil154 {fill:#3A86AC}
    .fil153 {fill:#3B86AC}
    .fil152 {fill:#3C87AD}
    .fil151 {fill:#3D87AD}
    .fil150 {fill:#3E87AE}
    .fil149 {fill:#3F88AE}
    .fil148 {fill:#4088AE}
    .fil147 {fill:#4189AF}
    .fil146 {fill:#4289AF}
    .fil145 {fill:#438AB0}
    .fil144 {fill:#448AB0}
    .fil143 {fill:#458AB0}
    .fil142 {fill:#468BB1}
    .fil141 {fill:#478BB1}
    .fil140 {fill:#488BB1}
    .fil139 {fill:#488CB2}
    .fil138 {fill:#498CB2}
    .fil137 {fill:#4A8CB2}
    .fil136 {fill:#4A8DB2}
    .fil135 {fill:#4B8DB3}
    .fil134 {fill:#4C8DB3}
    .fil133 {fill:#4D8DB3}
    .fil132 {fill:#4D8EB4}
    .fil131 {fill:#4E8EB4}
    .fil130 {fill:#4F8EB4}
    .fil129 {fill:#508FB4}
    .fil128 {fill:#508FB5}
    .fil127 {fill:#518FB5}
    .fil126 {fill:#5290B5}
    .fil125 {fill:#5390B6}
    .fil124 {fill:#5491B6}
    .fil123 {fill:#5591B7}
    .fil122 {fill:#5691B7}
    .fil121 {fill:#5792B7}
    .fil120 {fill:#5892B8}
    .fil119 {fill:#5993B8}
    .fil118 {fill:#5A93B9}
    .fil117 {fill:#5B93B9}
    .fil116 {fill:#5B94B9}
    .fil115 {fill:#5C94B9}
    .fil114 {fill:#5D94BA}
    .fil113 {fill:#5E95BA}
    .fil112 {fill:#5F95BB}
    .fil111 {fill:#6095BB}
    .fil110 {fill:#6096BB}
    .fil109 {fill:#6196BB}
    .fil108 {fill:#6296BC}
    .fil107 {fill:#6397BC}
    .fil106 {fill:#6497BD}
    .fil105 {fill:#6597BD}
    .fil104 {fill:#6598BD}
    .fil224 {fill:#65B1B1}
    .fil103 {fill:#6698BD}
    .fil102 {fill:#6798BE}
    .fil101 {fill:#6899BE}
    .fil100 {fill:#6999BF}
    .fil99 {fill:#6A9ABF}
    .fil98 {fill:#6B9ABF}
    .fil97 {fill:#6C9AC0}
    .fil96 {fill:#6D9BC0}
    .fil95 {fill:#6E9BC1}
    .fil94 {fill:#6F9CC1}
    .fil93 {fill:#709CC1}
    .fil92 {fill:#709CC2}
    .fil91 {fill:#719DC2}
    .fil225 {fill:#71E9D1}
    .fil90 {fill:#729DC2}
    .fil89 {fill:#739DC2}
    .fil88 {fill:#739EC3}
    .fil87 {fill:#749EC3}
    .fil86 {fill:#759EC3}
    .fil85 {fill:#769EC4}
    .fil84 {fill:#769FC4}
    .fil83 {fill:#779FC4}
    .fil82 {fill:#789FC4}
    .fil81 {fill:#78A0C5}
    .fil80 {fill:#79A0C5}
    .fil79 {fill:#7AA0C5}
    .fil78 {fill:#7BA1C6}
    .fil77 {fill:#7CA1C6}
    .fil76 {fill:#7DA1C6}
    .fil75 {fill:#7EA2C7}
    .fil74 {fill:#7FA2C7}
    .fil73 {fill:#80A3C8}
    .fil72 {fill:#81A3C8}
    .fil71 {fill:#82A4C8}
    .fil70 {fill:#83A4C9}
    .fil69 {fill:#84A4C9}
    .fil68 {fill:#85A5CA}
    .fil67 {fill:#86A5CA}
    .fil66 {fill:#87A6CB}
    .fil65 {fill:#88A6CB}
    .fil64 {fill:#89A7CB}
    .fil63 {fill:#8AA7CC}
    .fil62 {fill:#8BA7CC}
    .fil61 {fill:#8CA8CD}
    .fil60 {fill:#8DA8CD}
    .fil59 {fill:#8EA8CD}
    .fil58 {fill:#8EA9CD}
    .fil57 {fill:#8FA9CE}
    .fil56 {fill:#90A9CE}
    .fil55 {fill:#91AACE}
    .fil54 {fill:#91AACF}
    .fil53 {fill:#92AACF}
    .fil52 {fill:#93AACF}
    .fil51 {fill:#93ABCF}
    .fil50 {fill:#94ABD0}
    .fil49 {fill:#95ABD0}
    .fil48 {fill:#96ACD0}
    .fil47 {fill:#96ACD1}
    .fil46 {fill:#97ACD1}
    .fil45 {fill:#98ADD1}
    .fil44 {fill:#99ADD1}
    .fil43 {fill:#99ADD2}
    .fil42 {fill:#9AAED2}
    .fil41 {fill:#9BAED2}
    .fil40 {fill:#9BAED3}
    .fil39 {fill:#9CAED3}
    .fil38 {fill:#9DAFD3}
    .fil37 {fill:#9EAFD4}
    .fil36 {fill:#9FB0D4}
    .fil35 {fill:#A0B0D4}
    .fil34 {fill:#A1B0D5}
    .fil33 {fill:#A1B1D5}
    .fil32 {fill:#A2B1D5}
    .fil31 {fill:#A3B1D6}
    .fil30 {fill:#A4B2D6}
    .fil226 {fill:#A4ECFB}
    .fil29 {fill:#A5B2D6}
    .fil28 {fill:#A6B2D7}
    .fil27 {fill:#A6B3D7}
    .fil26 {fill:#A7B3D7}
    .fil25 {fill:#A8B3D8}
    .fil24 {fill:#A9B4D8}
    .fil23 {fill:#AAB4D8}
    .fil22 {fill:#ABB4D9}
    .fil21 {fill:#ABB5D9}
    .fil20 {fill:#ACB5D9}
    .fil19 {fill:#ADB5DA}
    .fil18 {fill:#AEB6DA}
    .fil17 {fill:#AFB6DA}
    .fil16 {fill:#B0B7DB}
    .fil15 {fill:#B1B7DB}
    .fil14 {fill:#B2B7DC}
    .fil13 {fill:#B3B8DC}
    .fil12 {fill:#B4B8DC}
    .fil11 {fill:#B4B8DD}
    .fil10 {fill:#B5B9DD}
    .fil9 {fill:#B6B9DD}
    .fil8 {fill:#B7BADE}
    .fil7 {fill:#B8BADE}
    .fil6 {fill:#B9BADE}
    .fil5 {fill:#B9BADF}
    .fil4 {fill:#BABBDF}
    .fil3 {fill:#BBBBDF}
    .fil2 {fill:#BCBBDF}
    .fil1 {fill:#BCBCE0}
    .fil0 {fill:#BDBCE0}
    .fil222 {fill:#F1F1F1}
   ]]>
  </style>
    <clipPath id="id0">
     <path d="M0 0l2500 0 0 2500 -2500 0 0 -2500z"/>
    </clipPath>
 </defs>
 <g id="Camada_x0020_1">
  <metadata id="CorelCorpID_0Corel-Layer"/>
  <g>
   <g style="clip-path:url(#id0)">
    <polygon class="fil0" points="250,91 276,119 260,145 234,117 "/>
    <path id="1" class="fil1" d="M252 100l-11 17 17 19 11 -17 -17 -19zm-5 -26l44 46 -28 42 -44 -46 28 -42z"/>
    <path id="2" class="fil2" d="M248 83l-21 33 35 37 21 -33 -35 -37zm-5 -27l62 65 -38 59 -62 -65 38 -59z"/>
    <path id="3" class="fil3" d="M245 65l-33 50 53 56 33 -50 -53 -56zm-5 -27l79 84 -49 76 -79 -84 49 -76z"/>
    <path id="4" class="fil4" d="M242 47l-44 67 70 75 44 -67 -70 -75zm-5 -26l96 102 -60 92 -96 -102 60 -92z"/>
    <path id="5" class="fil5" d="M238 29l-54 84 88 94 54 -84 -88 -94zm-5 -26l114 121 -70 109 -114 -121 70 -109z"/>
    <path id="6" class="fil6" d="M235 12l-65 101 105 111 65 -101 -105 -111zm-5 -27l132 140 -82 126 -132 -140 82 -126z"/>
    <path id="7" class="fil7" d="M232 -6l-77 118 123 130 77 -118 -123 -130zm-5 -27l149 159 -93 143 -149 -159 93 -143z"/>
    <path id="8" class="fil8" d="M229 -24l-88 135 140 149 88 -135 -140 -149zm-5 -26l166 177 -104 159 -166 -177 104 -159z"/>
    <path id="9" class="fil9" d="M225 -41l-98 151 158 167 98 -151 -158 -167zm-5 -27l184 195 -114 177 -184 -195 114 -177z"/>
    <path id="10" class="fil9" d="M222 -59l-109 168 175 186 109 -168 -175 -186zm-5 -27l202 214 -126 194 -202 -214 126 -194z"/>
    <path id="11" class="fil10" d="M219 -77l-121 185 193 205 121 -185 -193 -205zm-5 -26l219 232 -137 210 -219 -232 137 -210z"/>
    <path id="12" class="fil11" d="M215 -94l-131 201 211 223 131 -201 -211 -223zm-5 -27l237 251 -147 227 -237 -251 147 -227z"/>
    <path id="13" class="fil12" d="M212 -112l-142 218 228 242 142 -218 -228 -242zm-5 -27l254 270 -158 244 -254 -270 158 -244z"/>
    <path id="14" class="fil13" d="M209 -130l-153 235 245 261 153 -235 -245 -261zm-5 -26l272 288 -170 260 -272 -288 170 -260z"/>
    <path id="15" class="fil14" d="M205 -148l-163 252 263 280 163 -252 -263 -280zm-5 -26l290 307 -180 277 -290 -307 180 -277z"/>
    <path id="16" class="fil15" d="M202 -165l-175 269 281 297 175 -269 -281 -297zm-5 -27l307 326 -191 294 -307 -326 191 -294z"/>
    <path id="17" class="fil15" d="M199 -183l-186 286 298 316 186 -286 -298 -316zm-5 -27l324 345 -202 311 -324 -345 202 -311z"/>
    <path id="18" class="fil16" d="M195 -201l-196 303 316 335 196 -303 -316 -335zm-5 -26l342 363 -212 327 -342 -363 212 -327z"/>
    <path id="19" class="fil17" d="M192 -218l-207 319 333 353 207 -319 -333 -353zm-5 -27l360 381 -224 345 -360 -381 224 -345z"/>
    <path id="20" class="fil18" d="M189 -236l-219 336 351 372 219 -336 -351 -372zm-5 -27l377 400 -235 362 -377 -400 235 -362z"/>
    <path id="21" class="fil18" d="M185 -254l-229 353 369 391 229 -353 -369 -391zm-4 -26l394 418 -246 378 -394 -418 246 -378z"/>
    <path id="22" class="fil19" d="M182 -272l-240 370 386 410 240 -370 -386 -410zm-5 -26l412 437 -256 395 -412 -437 256 -395z"/>
    <path id="23" class="fil20" d="M179 -289l-251 386 403 428 251 -386 -403 -428zm-5 -27l430 456 -268 412 -430 -456 268 -412z"/>
    <path id="24" class="fil21" d="M176 -307l-262 403 420 447 262 -403 -420 -447zm-5 -27l447 475 -279 429 -447 -475 279 -429z"/>
    <path id="25" class="fil22" d="M172 -325l-273 420 439 466 273 -420 -439 -466zm-5 -26l465 493 -289 445 -465 -493 289 -445z"/>
    <path id="26" class="fil23" d="M169 -342l-284 437 456 483 284 -437 -456 -483zm-5 -27l482 512 -300 462 -482 -512 300 -462z"/>
    <path id="27" class="fil24" d="M166 -360l-295 454 473 502 295 -454 -473 -502zm-5 -27l500 531 -312 479 -500 -531 312 -479z"/>
    <path id="28" class="fil24" d="M162 -378l-305 471 491 521 305 -471 -491 -521zm-5 -26l518 549 -322 495 -518 -549 322 -495z"/>
    <path id="29" class="fil25" d="M159 -396l-317 488 509 540 317 -488 -509 -540zm-5 -26l535 567 -333 513 -535 -567 333 -513z"/>
    <path id="30" class="fil26" d="M156 -413l-328 504 526 558 328 -504 -526 -558zm-5 -27l552 586 -344 530 -552 -586 344 -530z"/>
    <path id="31" class="fil27" d="M152 -431l-338 521 544 577 338 -521 -544 -577zm-5 -27l570 605 -354 547 -570 -605 354 -547z"/>
    <path id="32" class="fil28" d="M149 -449l-349 538 561 596 349 -538 -561 -596zm-5 -26l588 623 -366 563 -588 -623 366 -563z"/>
    <path id="33" class="fil29" d="M146 -466l-361 554 579 614 361 -554 -579 -614zm-5 -27l605 642 -377 580 -605 -642 377 -580z"/>
    <path id="34" class="fil30" d="M142 -484l-371 571 597 633 371 -571 -597 -633zm-5 -27l623 661 -387 597 -623 -661 387 -597z"/>
    <path id="35" class="fil31" d="M139 -502l-382 588 614 652 382 -588 -614 -652zm-5 -26l640 679 -398 613 -640 -679 398 -613z"/>
    <path id="36" class="fil31" d="M136 -519l-393 605 631 669 393 -605 -631 -669zm-5 -27l658 698 -410 630 -658 -698 410 -630z"/>
    <path id="37" class="fil32" d="M133 -537l-404 622 648 688 404 -622 -648 -688zm-5 -27l675 717 -421 647 -675 -717 421 -647z"/>
    <path id="38" class="fil33" d="M129 -555l-415 639 667 707 415 -639 -667 -707zm-5 -26l693 735 -431 663 -693 -735 431 -663z"/>
    <path id="39" class="fil34" d="M126 -573l-426 656 684 726 426 -656 -684 -726zm-5 -26l710 754 -442 680 -710 -754 442 -680z"/>
    <path id="40" class="fil35" d="M123 -590l-437 672 701 744 437 -672 -701 -744zm-5 -27l727 772 -453 698 -727 -772 453 -698z"/>
    <path id="41" class="fil36" d="M119 -608l-447 689 719 763 447 -689 -719 -763zm-5 -27l746 791 -464 715 -746 -791 464 -715z"/>
    <path id="42" class="fil37" d="M116 -626l-459 706 737 782 459 -706 -737 -782zm-5 -26l763 809 -475 731 -763 -809 475 -731z"/>
    <path id="43" class="fil37" d="M113 -643l-470 722 754 800 470 -722 -754 -800zm-5 -27l780 828 -486 748 -780 -828 486 -748z"/>
    <path id="44" class="fil38" d="M109 -661l-480 739 772 819 480 -739 -772 -819zm-5 -27l798 847 -496 765 -798 -847 496 -765z"/>
    <path id="45" class="fil39" d="M106 -679l-491 756 789 838 491 -756 -789 -838zm-5 -26l816 865 -508 781 -816 -865 508 -781z"/>
    <path id="46" class="fil40" d="M103 -697l-503 774 807 856 503 -774 -807 -856zm-5 -26l833 884 -519 798 -833 -884 519 -798z"/>
    <path id="47" class="fil41" d="M99 -714l-513 790 825 874 513 -790 -825 -874zm-5 -27l851 903 -529 815 -851 -903 529 -815z"/>
    <path id="48" class="fil42" d="M96 -732l-524 807 842 893 524 -807 -842 -893zm-5 -27l868 922 -540 832 -868 -922 540 -832z"/>
    <path id="49" class="fil43" d="M93 -750l-535 824 859 912 535 -824 -859 -912zm-5 -26l886 940 -552 848 -886 -940 552 -848z"/>
    <path id="50" class="fil44" d="M89 -767l-545 840 877 930 545 -840 -877 -930zm-4 -27l903 958 -563 866 -903 -958 563 -866z"/>
    <path id="51" class="fil45" d="M86 -785l-557 857 895 949 557 -857 -895 -949zm-5 -27l921 977 -573 883 -921 -977 573 -883z"/>
    <path id="52" class="fil46" d="M83 -803l-568 874 912 968 568 -874 -912 -968zm-5 -26l938 995 -584 899 -938 -995 584 -899z"/>
    <path id="53" class="fil47" d="M80 -821l-579 891 929 987 579 -891 -929 -987zm-5 -26l955 1014 -595 916 -955 -1014 595 -916z"/>
    <path id="54" class="fil48" d="M76 -838l-589 907 947 1005 589 -907 -947 -1005zm-5 -27l974 1033 -606 933 -974 -1033 606 -933z"/>
    <path id="55" class="fil49" d="M73 -856l-601 924 965 1024 601 -924 -965 -1024zm-5 -26l991 1051 -617 949 -991 -1051 617 -949z"/>
    <path id="56" class="fil50" d="M70 -874l-612 942 982 1042 612 -942 -982 -1042zm-5 -26l1008 1070 -628 966 -1008 -1070 628 -966z"/>
    <path id="57" class="fil51" d="M66 -891l-622 958 1000 1060 622 -958 -1000 -1060zm-5 -27l1026 1089 -638 983 -1026 -1089 638 -983z"/>
    <path id="58" class="fil52" d="M63 -909l-633 975 1017 1079 633 -975 -1017 -1079zm-5 -27l1044 1108 -650 1000 -1044 -1108 650 -1000z"/>
    <path id="59" class="fil53" d="M60 -927l-644 992 1034 1098 644 -992 -1034 -1098zm-5 -26l1061 1126 -661 1016 -1061 -1126 661 -1016z"/>
    <path id="60" class="fil54" d="M56 -944l-655 1008 1053 1116 655 -1008 -1053 -1116zm-5 -27l1079 1144 -671 1034 -1079 -1144 671 -1034z"/>
    <path id="61" class="fil55" d="M53 -962l-666 1025 1070 1135 666 -1025 -1070 -1135zm-5 -27l1096 1163 -682 1051 -1096 -1163 682 -1051z"/>
    <path id="62" class="fil56" d="M50 -980l-677 1042 1087 1154 677 -1042 -1087 -1154zm-5 -26l1114 1181 -694 1067 -1114 -1181 694 -1067z"/>
    <path id="63" class="fil57" d="M46 -998l-687 1059 1105 1173 687 -1059 -1105 -1173zm-5 -26l1132 1200 -704 1084 -1132 -1200 704 -1084z"/>
    <path id="64" class="fil58" d="M43 -1015l-699 1075 1123 1191 699 -1075 -1123 -1191zm-5 -27l1149 1219 -715 1101 -1149 -1219 715 -1101z"/>
    <path id="65" class="fil59" d="M40 -1033l-710 1092 1140 1210 710 -1092 -1140 -1210zm-5 -27l1166 1238 -726 1118 -1166 -1238 726 -1118z"/>
    <path id="66" class="fil60" d="M37 -1051l-721 1110 1157 1228 721 -1110 -1157 -1228zm-5 -26l1183 1256 -737 1134 -1183 -1256 737 -1134z"/>
    <path id="67" class="fil61" d="M33 -1068l-731 1126 1175 1246 731 -1126 -1175 -1246zm-5 -27l1202 1275 -748 1151 -1202 -1275 748 -1151z"/>
    <path id="68" class="fil62" d="M30 -1086l-743 1143 1193 1265 743 -1143 -1193 -1265zm-5 -27l1219 1294 -759 1168 -1219 -1294 759 -1168z"/>
    <path id="69" class="fil62" d="M27 -1104l-754 1160 1210 1284 754 -1160 -1210 -1284zm-5 -26l1236 1312 -770 1184 -1236 -1312 770 -1184z"/>
    <path id="70" class="fil63" d="M23 -1122l-764 1177 1228 1303 764 -1177 -1228 -1303zm-5 -26l1254 1330 -780 1202 -1254 -1330 780 -1202z"/>
    <path id="71" class="fil64" d="M20 -1139l-775 1193 1245 1321 775 -1193 -1245 -1321zm-5 -27l1272 1349 -792 1219 -1272 -1349 792 -1219z"/>
    <path id="72" class="fil65" d="M17 -1157l-786 1210 1262 1340 786 -1210 -1262 -1340zm-5 -27l1289 1368 -803 1236 -1289 -1368 803 -1236z"/>
    <path id="73" class="fil65" d="M13 -1175l-797 1227 1281 1359 797 -1227 -1281 -1359zm-5 -26l1307 1386 -813 1252 -1307 -1386 813 -1252z"/>
    <path id="74" class="fil66" d="M10 -1192l-808 1243 1298 1377 808 -1243 -1298 -1377zm-5 -27l1324 1405 -824 1269 -1324 -1405 824 -1269z"/>
    <path id="75" class="fil67" d="M7 -1210l-819 1260 1315 1396 819 -1260 -1315 -1396zm-5 -27l1341 1424 -835 1286 -1341 -1424 835 -1286z"/>
    <path id="76" class="fil67" d="M3 -1228l-829 1277 1333 1415 829 -1277 -1333 -1415zm-5 -26l1360 1442 -846 1302 -1360 -1442 846 -1302z"/>
    <path id="77" class="fil68" d="M0 -1246l-841 1295 1351 1433 841 -1295 -1351 -1433zm-5 -26l1377 1461 -857 1319 -1377 -1461 857 -1319z"/>
    <path id="78" class="fil69" d="M-3 -1263l-852 1311 1368 1451 852 -1311 -1368 -1451zm-5 -27l1394 1480 -868 1336 -1394 -1480 868 -1336z"/>
    <path id="79" class="fil70" d="M-7 -1281l-862 1328 1386 1470 862 -1328 -1386 -1470zm-4 -26l1411 1498 -879 1352 -1411 -1498 879 -1352z"/>
    <path id="80" class="fil70" d="M-10 -1299l-873 1345 1403 1489 873 -1345 -1403 -1489zm-5 -26l1430 1516 -890 1370 -1430 -1516 890 -1370z"/>
    <path id="81" class="fil71" d="M-13 -1316l-885 1361 1421 1507 885 -1361 -1421 -1507zm-5 -27l1447 1535 -901 1387 -1447 -1535 901 -1387z"/>
    <path id="82" class="fil72" d="M-16 -1334l-896 1378 1438 1526 896 -1378 -1438 -1526zm-5 -27l1464 1554 -912 1404 -1464 -1554 912 -1404z"/>
    <path id="83" class="fil73" d="M-20 -1352l-906 1395 1456 1545 906 -1395 -1456 -1545zm-5 -26l1482 1572 -922 1420 -1482 -1572 922 -1420z"/>
    <path id="84" class="fil73" d="M-23 -1369l-917 1411 1473 1563 917 -1411 -1473 -1563zm-5 -27l1500 1591 -934 1437 -1500 -1591 934 -1437z"/>
    <path id="85" class="fil74" d="M-26 -1387l-928 1428 1490 1582 928 -1428 -1490 -1582zm-5 -27l1517 1610 -945 1454 -1517 -1610 945 -1454z"/>
    <path id="86" class="fil75" d="M-30 -1405l-939 1445 1509 1601 939 -1445 -1509 -1601zm-5 -26l1535 1628 -955 1470 -1535 -1628 955 -1470z"/>
    <path id="87" class="fil75" d="M-33 -1423l-950 1463 1526 1619 950 -1463 -1526 -1619zm-5 -26l1552 1647 -966 1487 -1552 -1647 966 -1487z"/>
    <path id="88" class="fil76" d="M-36 -1440l-961 1479 1543 1637 961 -1479 -1543 -1637zm-5 -27l1569 1666 -977 1504 -1569 -1666 977 -1504z"/>
    <path id="89" class="fil77" d="M-40 -1458l-971 1496 1561 1656 971 -1496 -1561 -1656zm-5 -27l1588 1685 -988 1521 -1588 -1685 988 -1521z"/>
    <path id="90" class="fil78" d="M-43 -1476l-983 1513 1579 1675 983 -1513 -1579 -1675zm-5 -26l1605 1702 -999 1538 -1605 -1702 999 -1538z"/>
    <path id="91" class="fil78" d="M-46 -1493l-994 1529 1596 1693 994 -1529 -1596 -1693zm-5 -27l1622 1721 -1010 1555 -1622 -1721 1010 -1555z"/>
    <path id="92" class="fil79" d="M-50 -1511l-1004 1546 1614 1712 1004 -1546 -1614 -1712zm-5 -27l1640 1740 -1020 1572 -1640 -1740 1020 -1572z"/>
    <path id="93" class="fil80" d="M-53 -1529l-1015 1563 1631 1731 1015 -1563 -1631 -1731zm-5 -26l1658 1758 -1032 1588 -1658 -1758 1032 -1588z"/>
    <path id="94" class="fil81" d="M-56 -1547l-1026 1580 1648 1750 1026 -1580 -1648 -1750zm-5 -26l1675 1777 -1043 1605 -1675 -1777 1043 -1605z"/>
    <path id="95" class="fil82" d="M-60 -1564l-1037 1596 1667 1768 1037 -1596 -1667 -1768zm-4 -27l1692 1796 -1054 1622 -1692 -1796 1054 -1622z"/>
    <path id="96" class="fil83" d="M-63 -1582l-1048 1613 1684 1787 1048 -1613 -1684 -1787zm-5 -27l1710 1815 -1064 1639 -1710 -1815 1064 -1639z"/>
    <path id="97" class="fil84" d="M-66 -1600l-1059 1631 1701 1805 1059 -1631 -1701 -1805zm-5 -26l1728 1833 -1076 1655 -1728 -1833 1076 -1655z"/>
    <path id="98" class="fil85" d="M-69 -1617l-1070 1647 1718 1823 1070 -1647 -1718 -1823zm-5 -27l1745 1852 -1087 1672 -1745 -1852 1087 -1672z"/>
    <path id="99" class="fil86" d="M-73 -1635l-1081 1664 1737 1842 1081 -1664 -1737 -1842zm-5 -27l1763 1871 -1097 1689 -1763 -1871 1097 -1689z"/>
    <path id="100" class="fil87" d="M-76 -1653l-1092 1681 1754 1861 1092 -1681 -1754 -1861zm-5 -26l1780 1889 -1108 1705 -1780 -1889 1108 -1705z"/>
    <path id="101" class="fil88" d="M-79 -1670l-1103 1697 1771 1879 1103 -1697 -1771 -1879zm-5 -27l1797 1907 -1119 1723 -1797 -1907 1119 -1723z"/>
    <path id="102" class="fil89" d="M-83 -1688l-1113 1714 1789 1898 1113 -1714 -1789 -1898zm-5 -27l1816 1926 -1130 1740 -1816 -1926 1130 -1740z"/>
    <path id="103" class="fil90" d="M-86 -1706l-1125 1731 1807 1917 1125 -1731 -1807 -1917zm-5 -26l1833 1944 -1141 1756 -1833 -1944 1141 -1756z"/>
    <path id="104" class="fil91" d="M-89 -1724l-1136 1748 1824 1936 1136 -1748 -1824 -1936zm-5 -26l1850 1963 -1152 1773 -1850 -1963 1152 -1773z"/>
    <path id="105" class="fil92" d="M-93 -1741l-1146 1764 1842 1954 1146 -1764 -1842 -1954zm-5 -27l1868 1982 -1162 1790 -1868 -1982 1162 -1790z"/>
    <path id="106" class="fil93" d="M-96 -1759l-1157 1781 1859 1973 1157 -1781 -1859 -1973zm-5 -27l1886 2001 -1174 1807 -1886 -2001 1174 -1807z"/>
    <path id="107" class="fil94" d="M-99 -1777l-1168 1799 1876 1991 1168 -1799 -1876 -1991zm-5 -26l1903 2019 -1185 1823 -1903 -2019 1185 -1823z"/>
    <path id="108" class="fil95" d="M-103 -1794l-1179 1815 1895 2009 1179 -1815 -1895 -2009zm-5 -27l1921 2038 -1195 1840 -1921 -2038 1195 -1840z"/>
    <path id="109" class="fil96" d="M-106 -1812l-1190 1832 1912 2028 1190 -1832 -1912 -2028zm-5 -27l1938 2057 -1206 1857 -1938 -2057 1206 -1857z"/>
    <path id="110" class="fil96" d="M-109 -1830l-1201 1849 1929 2047 1201 -1849 -1929 -2047zm-5 -26l1955 2075 -1217 1873 -1955 -2075 1217 -1873z"/>
    <path id="111" class="fil97" d="M-112 -1848l-1212 1866 1946 2066 1212 -1866 -1946 -2066zm-5 -26l1973 2093 -1229 1891 -1973 -2093 1229 -1891z"/>
    <path id="112" class="fil98" d="M-116 -1865l-1223 1882 1965 2084 1223 -1882 -1965 -2084zm-5 -27l1991 2112 -1239 1908 -1991 -2112 1239 -1908z"/>
    <path id="113" class="fil98" d="M-119 -1883l-1234 1899 1982 2103 1234 -1899 -1982 -2103zm-5 -27l2008 2131 -1250 1925 -2008 -2131 1250 -1925z"/>
    <path id="114" class="fil99" d="M-122 -1901l-1245 1916 1999 2122 1245 -1916 -1999 -2122zm-5 -26l2025 2149 -1261 1941 -2025 -2149 1261 -1941z"/>
    <path id="115" class="fil100" d="M-126 -1918l-1255 1932 2017 2140 1255 -1932 -2017 -2140zm-5 -27l2044 2168 -1272 1958 -2044 -2168 1272 -1958z"/>
    <path id="116" class="fil101" d="M-129 -1936l-1267 1949 2035 2159 1267 -1949 -2035 -2159zm-5 -27l2061 2187 -1283 1975 -2061 -2187 1283 -1975z"/>
    <path id="117" class="fil101" d="M-132 -1954l-1278 1967 2052 2177 1278 -1967 -2052 -2177zm-5 -26l2078 2205 -1294 1991 -2078 -2205 1294 -1991z"/>
    <path id="118" class="fil102" d="M-136 -1972l-1288 1984 2070 2196 1288 -1984 -2070 -2196zm-5 -26l2096 2224 -1304 2008 -2096 -2224 1304 -2008z"/>
    <path id="119" class="fil103" d="M-139 -1989l-1299 2000 2087 2214 1299 -2000 -2087 -2214zm-5 -27l2114 2243 -1316 2025 -2114 -2243 1316 -2025z"/>
    <path id="120" class="fil104" d="M-142 -2007l-1310 2017 2104 2233 1310 -2017 -2104 -2233zm-5 -27l2131 2262 -1327 2042 -2131 -2262 1327 -2042z"/>
    <path id="121" class="fil105" d="M-146 -2025l-1321 2034 2123 2252 1321 -2034 -2123 -2252zm-5 -26l2149 2279 -1337 2059 -2149 -2279 1337 -2059z"/>
    <path id="122" class="fil106" d="M-149 -2042l-1332 2050 2140 2270 1332 -2050 -2140 -2270zm-5 -27l2166 2298 -1348 2076 -2166 -2298 1348 -2076z"/>
    <path id="123" class="fil107" d="M-152 -2060l-1343 2067 2157 2289 1343 -2067 -2157 -2289zm-5 -27l2183 2317 -1359 2093 -2183 -2317 1359 -2093z"/>
    <path id="124" class="fil107" d="M-156 -2078l-1353 2084 2175 2308 1353 -2084 -2175 -2308zm-4 -26l2201 2335 -1371 2109 -2201 -2335 1371 -2109z"/>
    <path id="125" class="fil108" d="M-159 -2095l-1365 2100 2193 2326 1365 -2100 -2193 -2326zm-5 -27l2219 2354 -1381 2126 -2219 -2354 1381 -2126z"/>
    <path id="126" class="fil109" d="M-162 -2113l-1376 2117 2210 2345 1376 -2117 -2210 -2345zm-5 -27l2236 2373 -1392 2143 -2236 -2373 1392 -2143z"/>
    <path id="127" class="fil110" d="M-165 -2131l-1387 2135 2227 2363 1387 -2135 -2227 -2363zm-5 -26l2253 2391 -1403 2159 -2253 -2391 1403 -2159z"/>
    <path id="128" class="fil111" d="M-169 -2149l-1397 2152 2245 2382 1397 -2152 -2245 -2382zm-5 -26l2272 2410 -1414 2176 -2272 -2410 1414 -2176z"/>
    <path id="129" class="fil112" d="M-172 -2166l-1408 2168 2262 2400 1408 -2168 -2262 -2400zm-5 -27l2289 2429 -1425 2193 -2289 -2429 1425 -2193z"/>
    <path id="130" class="fil113" d="M-175 -2184l-1420 2185 2280 2419 1420 -2185 -2280 -2419zm-5 -27l2306 2448 -1436 2210 -2306 -2448 1436 -2210z"/>
    <path id="131" class="fil114" d="M-179 -2202l-1430 2202 2298 2438 1430 -2202 -2298 -2438zm-5 -26l2324 2465 -1446 2227 -2324 -2465 1446 -2227z"/>
    <path id="132" class="fil114" d="M-182 -2219l-1441 2218 2315 2456 1441 -2218 -2315 -2456zm-5 -27l2342 2484 -1458 2244 -2342 -2484 1458 -2244z"/>
    <path id="133" class="fil115" d="M-185 -2237l-1452 2235 2332 2475 1452 -2235 -2332 -2475zm-5 -27l2359 2503 -1469 2261 -2359 -2503 1469 -2261z"/>
    <path id="134" class="fil116" d="M-189 -2255l-1463 2252 2351 2494 1463 -2252 -2351 -2494zm-5 -26l2377 2521 -1479 2277 -2377 -2521 1479 -2277z"/>
    <path id="135" class="fil117" d="M-192 -2273l-1474 2269 2368 2513 1474 -2269 -2368 -2513zm-5 -26l2394 2540 -1490 2294 -2394 -2540 1490 -2294z"/>
    <path id="136" class="fil118" d="M-195 -2290l-1485 2285 2385 2531 1485 -2285 -2385 -2531zm-5 -27l2411 2559 -1501 2311 -2411 -2559 1501 -2311z"/>
    <path id="137" class="fil119" d="M-199 -2308l-1495 2302 2403 2550 1495 -2302 -2403 -2550zm-5 -27l2430 2578 -1512 2328 -2430 -2578 1512 -2328z"/>
    <path id="138" class="fil120" d="M-202 -2326l-1507 2320 2421 2568 1507 -2320 -2421 -2568zm-5 -26l2447 2596 -1523 2344 -2447 -2596 1523 -2344z"/>
    <path id="139" class="fil120" d="M-205 -2343l-1518 2336 2438 2586 1518 -2336 -2438 -2586zm-5 -27l2464 2615 -1534 2361 -2464 -2615 1534 -2361z"/>
    <path id="140" class="fil121" d="M-208 -2361l-1529 2353 2455 2605 1529 -2353 -2455 -2605zm-5 -27l2481 2634 -1545 2378 -2481 -2634 1545 -2378z"/>
    <path id="141" class="fil122" d="M-212 -2379l-1539 2370 2473 2624 1539 -2370 -2473 -2624zm-5 -26l2500 2651 -1556 2395 -2500 -2651 1556 -2395z"/>
    <path id="142" class="fil123" d="M-215 -2397l-1550 2387 2490 2643 1550 -2387 -2490 -2643zm-5 -26l2517 2670 -1567 2412 -2517 -2670 1567 -2412z"/>
    <path id="143" class="fil123" d="M-218 -2414l-1562 2403 2508 2661 1562 -2403 -2508 -2661zm-5 -27l2534 2689 -1578 2429 -2534 -2689 1578 -2429z"/>
    <path id="144" class="fil124" d="M-222 -2432l-1572 2420 2526 2680 1572 -2420 -2526 -2680zm-5 -26l2552 2707 -1588 2445 -2552 -2707 1588 -2445z"/>
    <path id="145" class="fil125" d="M-225 -2450l-1583 2437 2543 2699 1583 -2437 -2543 -2699zm-5 -26l2569 2726 -1599 2462 -2569 -2726 1599 -2462z"/>
    <path id="146" class="fil125" d="M-228 -2467l-1594 2453 2560 2717 1594 -2453 -2560 -2717zm-5 -27l2587 2745 -1611 2479 -2587 -2745 1611 -2479z"/>
    <path id="147" class="fil126" d="M-232 -2485l-1605 2470 2579 2736 1605 -2470 -2579 -2736zm-5 -27l2605 2764 -1621 2496 -2605 -2764 1621 -2496z"/>
    <path id="148" class="fil127" d="M-235 -2503l-1616 2488 2596 2754 1616 -2488 -2596 -2754zm-5 -26l2622 2782 -1632 2512 -2622 -2782 1632 -2512z"/>
    <path id="149" class="fil128" d="M-238 -2520l-1627 2504 2613 2772 1627 -2504 -2613 -2772zm-5 -27l2639 2801 -1643 2529 -2639 -2801 1643 -2529z"/>
    <path id="150" class="fil129" d="M-242 -2538l-1637 2521 2631 2791 1637 -2521 -2631 -2791zm-5 -27l2658 2820 -1654 2546 -2658 -2820 1654 -2546z"/>
    <path id="151" class="fil130" d="M-245 -2556l-1649 2538 2649 2810 1649 -2538 -2649 -2810zm-5 -26l2675 2837 -1665 2563 -2675 -2837 1665 -2563z"/>
    <path id="152" class="fil131" d="M-248 -2574l-1660 2555 2666 2829 1660 -2555 -2666 -2829zm-5 -26l2692 2856 -1676 2580 -2692 -2856 1676 -2580z"/>
    <path id="153" class="fil132" d="M-252 -2591l-1670 2571 2684 2847 1670 -2571 -2684 -2847zm-4 -27l2709 2875 -1687 2597 -2709 -2875 1687 -2597z"/>
    <path id="154" class="fil133" d="M-255 -2609l-1681 2588 2701 2866 1681 -2588 -2701 -2866zm-5 -27l2728 2894 -1698 2614 -2728 -2894 1698 -2614z"/>
    <path id="155" class="fil134" d="M-258 -2627l-1692 2605 2718 2885 1692 -2605 -2718 -2885zm-5 -26l2745 2912 -1709 2630 -2745 -2912 1709 -2630z"/>
    <path id="156" class="fil135" d="M-261 -2644l-1704 2621 2736 2903 1704 -2621 -2736 -2903zm-5 -27l2762 2931 -1720 2647 -2762 -2931 1720 -2647z"/>
    <path id="157" class="fil136" d="M-265 -2662l-1714 2638 2754 2922 1714 -2638 -2754 -2922zm-5 -27l2780 2950 -1730 2664 -2780 -2950 1730 -2664z"/>
    <path id="158" class="fil137" d="M-268 -2680l-1725 2656 2771 2940 1725 -2656 -2771 -2940zm-5 -26l2797 2968 -1741 2680 -2797 -2968 1741 -2680z"/>
    <path id="159" class="fil138" d="M-271 -2698l-1736 2673 2788 2959 1736 -2673 -2788 -2959zm-5 -26l2815 2987 -1753 2697 -2815 -2987 1753 -2697z"/>
    <path id="160" class="fil139" d="M-275 -2715l-1747 2689 2807 2977 1747 -2689 -2807 -2977zm-5 -27l2833 3006 -1763 2714 -2833 -3006 1763 -2714z"/>
    <path id="161" class="fil140" d="M-278 -2733l-1758 2706 2824 2996 1758 -2706 -2824 -2996zm-5 -27l2850 3024 -1774 2732 -2850 -3024 1774 -2732z"/>
    <path id="162" class="fil141" d="M-281 -2751l-1769 2723 2841 3015 1769 -2723 -2841 -3015zm-5 -26l2867 3042 -1785 2748 -2867 -3042 1785 -2748z"/>
    <path id="163" class="fil142" d="M-285 -2768l-1779 2739 2859 3033 1779 -2739 -2859 -3033zm-5 -27l2886 3061 -1796 2765 -2886 -3061 1796 -2765z"/>
    <path id="164" class="fil143" d="M-288 -2786l-1790 2756 2876 3052 1790 -2756 -2876 -3052zm-5 -27l2903 3080 -1807 2782 -2903 -3080 1807 -2782z"/>
    <path id="165" class="fil143" d="M-291 -2804l-1802 2773 2894 3071 1802 -2773 -2894 -3071zm-5 -26l2920 3098 -1818 2798 -2920 -3098 1818 -2798z"/>
    <path id="166" class="fil144" d="M-295 -2822l-1812 2790 2912 3090 1812 -2790 -2912 -3090zm-5 -26l2938 3117 -1828 2815 -2938 -3117 1828 -2815z"/>
    <path id="167" class="fil145" d="M-298 -2839l-1823 2806 2929 3108 1823 -2806 -2929 -3108zm-5 -27l2956 3136 -1840 2832 -2956 -3136 1840 -2832z"/>
    <path id="168" class="fil146" d="M-301 -2857l-1834 2824 2946 3126 1834 -2824 -2946 -3126zm-5 -26l2973 3154 -1851 2848 -2973 -3154 1851 -2848z"/>
    <path id="169" class="fil146" d="M-304 -2875l-1846 2841 2964 3145 1846 -2841 -2964 -3145zm-5 -26l2990 3173 -1862 2865 -2990 -3173 1862 -2865z"/>
    <path id="170" class="fil147" d="M-308 -2892l-1856 2857 2982 3163 1856 -2857 -2982 -3163zm-5 -27l3008 3192 -1872 2882 -3008 -3192 1872 -2882z"/>
    <path id="171" class="fil148" d="M-311 -2910l-1867 2874 2999 3182 1867 -2874 -2999 -3182zm-5 -27l3025 3211 -1883 2899 -3025 -3211 1883 -2899z"/>
    <path id="172" class="fil148" d="M-314 -2928l-1878 2891 3016 3201 1878 -2891 -3016 -3201zm-5 -26l3043 3228 -1895 2916 -3043 -3228 1895 -2916z"/>
    <path id="173" class="fil149" d="M-318 -2945l-1889 2907 3035 3219 1889 -2907 -3035 -3219zm-5 -27l3061 3247 -1905 2933 -3061 -3247 1905 -2933z"/>
    <path id="174" class="fil150" d="M-321 -2963l-1900 2924 3052 3238 1900 -2924 -3052 -3238zm-5 -27l3078 3266 -1916 2950 -3078 -3266 1916 -2950z"/>
    <path id="175" class="fil151" d="M-324 -2981l-1911 2941 3069 3257 1911 -2941 -3069 -3257zm-5 -26l3095 3284 -1927 2966 -3095 -3284 1927 -2966z"/>
    <path id="176" class="fil151" d="M-328 -2999l-1921 2958 3087 3276 1921 -2958 -3087 -3276zm-5 -26l3114 3303 -1938 2983 -3114 -3303 1938 -2983z"/>
    <path id="177" class="fil152" d="M-331 -3016l-1932 2974 3104 3294 1932 -2974 -3104 -3294zm-5 -27l3131 3322 -1949 3000 -3131 -3322 1949 -3000z"/>
    <path id="178" class="fil153" d="M-334 -3034l-1944 2992 3122 3312 1944 -2992 -3122 -3312zm-5 -27l3148 3341 -1960 3017 -3148 -3341 1960 -3017z"/>
    <path id="179" class="fil154" d="M-338 -3052l-1954 3009 3140 3331 1954 -3009 -3140 -3331zm-5 -26l3166 3359 -1970 3033 -3166 -3359 1970 -3033z"/>
    <path id="180" class="fil154" d="M-341 -3069l-1965 3025 3157 3349 1965 -3025 -3157 -3349zm-5 -27l3183 3378 -1981 3050 -3183 -3378 1981 -3050z"/>
    <path id="181" class="fil155" d="M-344 -3087l-1976 3042 3174 3368 1976 -3042 -3174 -3368zm-5 -27l3201 3397 -1993 3067 -3201 -3397 1993 -3067z"/>
    <path id="182" class="fil156" d="M-348 -3105l-1987 3059 3193 3387 1987 -3059 -3193 -3387zm-4 -26l3218 3414 -2004 3084 -3218 -3414 2004 -3084z"/>
    <path id="183" class="fil156" d="M-351 -3123l-1998 3076 3210 3406 1998 -3076 -3210 -3406zm-5 -26l3236 3433 -2014 3101 -3236 -3433 2014 -3101z"/>
    <path id="184" class="fil157" d="M-354 -3140l-2009 3092 3227 3424 2009 -3092 -3227 -3424zm-5 -27l3253 3452 -2025 3118 -3253 -3452 2025 -3118z"/>
    <path id="185" class="fil158" d="M-357 -3158l-2020 3109 3244 3443 2020 -3109 -3244 -3443zm-5 -27l3271 3471 -2037 3135 -3271 -3471 2037 -3135z"/>
    <path id="186" class="fil159" d="M-361 -3176l-2031 3126 3263 3462 2031 -3126 -3263 -3462zm-5 -26l3289 3489 -2047 3151 -3289 -3489 2047 -3151z"/>
    <path id="187" class="fil159" d="M-364 -3193l-2042 3142 3280 3480 2042 -3142 -3280 -3480zm-5 -27l3306 3508 -2058 3168 -3306 -3508 2058 -3168z"/>
    <path id="188" class="fil160" d="M-367 -3211l-2053 3160 3297 3498 2053 -3160 -3297 -3498zm-5 -27l3323 3527 -2069 3185 -3323 -3527 2069 -3185z"/>
    <path id="189" class="fil161" d="M-371 -3229l-2063 3177 3315 3517 2063 -3177 -3315 -3517zm-5 -26l3342 3545 -2080 3201 -3342 -3545 2080 -3201z"/>
    <path id="190" class="fil162" d="M-374 -3247l-2074 3194 3332 3535 2074 -3193 -3332 -3536zm-5 -26l3359 3564 -2091 3218 -3359 -3564 2091 -3218z"/>
    <path id="191" class="fil163" d="M-377 -3264l-2086 3210 3350 3554 2086 -3210 -3350 -3554zm-5 -27l3376 3583 -2102 3235 -3376 -3583 2102 -3235z"/>
    <path id="192" class="fil164" d="M-381 -3282l-2096 3227 3368 3573 2096 -3227 -3368 -3573zm-5 -26l3394 3600 -2112 3252 -3394 -3600 2112 -3252z"/>
    <path id="193" class="fil165" d="M-384 -3300l-2107 3244 3385 3592 2107 -3244 -3385 -3592zm-5 -26l3411 3619 -2123 3269 -3411 -3619 2123 -3269z"/>
    <path id="194" class="fil166" d="M-387 -3317l-2118 3260 3402 3610 2118 -3260 -3402 -3610zm-5 -27l3429 3638 -2135 3286 -3429 -3638 2135 -3286z"/>
    <path id="195" class="fil167" d="M-391 -3335l-2129 3277 3421 3629 2129 -3277 -3421 -3629zm-5 -27l3447 3657 -2145 3303 -3447 -3657 2145 -3303z"/>
    <path id="196" class="fil168" d="M-394 -3353l-2140 3294 3438 3648 2140 -3294 -3438 -3648zm-5 -26l3464 3675 -2156 3319 -3464 -3675 2156 -3319z"/>
    <path id="197" class="fil169" d="M-397 -3370l-2151 3310 3455 3666 2151 -3310 -3455 -3666zm-5 -27l3481 3694 -2167 3336 -3481 -3694 2167 -3336z"/>
    <path id="198" class="fil170" d="M-400 -3388l-2162 3328 3472 3684 2162 -3328 -3472 -3684zm-5 -27l3499 3713 -2179 3353 -3499 -3713 2179 -3353z"/>
    <path id="199" class="fil171" d="M-404 -3406l-2172 3345 3490 3703 2172 -3345 -3490 -3703zm-5 -26l3517 3731 -2189 3369 -3517 -3731 2189 -3369z"/>
    <path id="200" class="fil172" d="M-407 -3424l-2184 3362 3508 3722 2184 -3362 -3508 -3722zm-5 -26l3534 3750 -2200 3386 -3534 -3750 2200 -3386z"/>
    <path id="201" class="fil173" d="M-410 -3441l-2195 3378 3525 3740 2195 -3378 -3525 -3740zm-5 -27l3551 3769 -2211 3403 -3551 -3769 2211 -3403z"/>
    <path id="202" class="fil174" d="M-414 -3459l-2205 3395 3543 3759 2205 -3395 -3543 -3759zm-5 -27l3570 3787 -2222 3421 -3570 -3787 2222 -3421z"/>
    <path id="203" class="fil175" d="M-417 -3477l-2216 3412 3560 3778 2216 -3412 -3560 -3778zm-5 -26l3587 3805 -2233 3437 -3587 -3805 2233 -3437z"/>
    <path id="204" class="fil176" d="M-420 -3494l-2228 3428 3578 3796 2228 -3428 -3578 -3796zm-5 -27l3604 3824 -2244 3454 -3604 -3824 2244 -3454z"/>
    <path id="205" class="fil177" d="M-424 -3512l-2238 3445 3596 3815 2238 -3445 -3596 -3815zm-5 -27l3622 3843 -2254 3471 -3622 -3843 2254 -3471z"/>
    <path id="206" class="fil178" d="M-427 -3530l-2249 3462 3613 3834 2249 -3462 -3613 -3834zm-5 -26l3639 3861 -2265 3487 -3639 -3861 2265 -3487z"/>
    <path id="207" class="fil179" d="M-430 -3548l-2260 3479 3630 3853 2260 -3479 -3630 -3853zm-5 -26l3657 3880 -2277 3504 -3657 -3880 2277 -3504z"/>
    <path id="208" class="fil180" d="M-434 -3565l-2271 3495 3649 3871 2271 -3495 -3649 -3871zm-5 -27l3675 3899 -2287 3521 -3675 -3899 2287 -3521z"/>
    <path id="209" class="fil181" d="M-437 -3583l-2282 3513 3666 3889 2282 -3513 -3666 -3889zm-5 -27l3692 3918 -2298 3538 -3692 -3918 2298 -3538z"/>
    <path id="210" class="fil182" d="M-440 -3601l-2293 3530 3683 3908 2293 -3530 -3683 -3908zm-5 -26l3709 3936 -2309 3554 -3709 -3936 2309 -3554z"/>
    <path id="211" class="fil183" d="M-444 -3618l-2303 3546 3701 3926 2303 -3546 -3701 -3926zm-4 -27l3727 3955 -2321 3571 -3727 -3955 2321 -3571z"/>
    <path id="212" class="fil184" d="M-447 -3636l-2314 3563 3718 3945 2314 -3563 -3718 -3945zm-5 -27l3745 3973 -2331 3589 -3745 -3973 2331 -3589z"/>
    <path id="213" class="fil184" d="M-450 -3654l-2326 3580 3736 3964 2326 -3580 -3736 -3964zm-5 -26l3762 3991 -2342 3605 -3762 -3991 2342 -3605z"/>
    <path id="214" class="fil185" d="M-453 -3671l-2337 3596 3753 3982 2337 -3596 -3753 -3982zm-5 -27l3779 4010 -2353 3622 -3779 -4010 2353 -3622z"/>
    <path id="215" class="fil186" d="M-457 -3689l-2347 3613 3771 4001 2347 -3613 -3771 -4001zm-5 -27l3797 4029 -2363 3639 -3797 -4029 2363 -3639z"/>
    <path id="216" class="fil187" d="M-460 -3707l-2358 3630 3788 4020 2358 -3630 -3788 -4020zm-5 -26l3815 4047 -2375 3655 -3815 -4047 2375 -3655z"/>
    <path id="217" class="fil188" d="M-463 -3725l-2370 3647 3806 4039 2370 -3647 -3806 -4039zm-5 -26l3832 4066 -2386 3672 -3832 -4066 2386 -3672z"/>
    <path id="218" class="fil189" d="M-467 -3742l-2380 3663 3824 4057 2380 -3663 -3824 -4057zm-5 -27l3850 4085 -2396 3689 -3850 -4085 2396 -3689z"/>
    <path id="219" class="fil190" d="M-470 -3760l-2391 3681 3841 4075 2391 -3681 -3841 -4075zm-5 -27l3867 4104 -2407 3706 -3867 -4104 2407 -3706z"/>
    <path id="220" class="fil190" d="M-473 -3778l-2402 3698 3858 4094 2402 -3698 -3858 -4094zm-5 -26l3885 4122 -2419 3722 -3885 -4122 2419 -3722z"/>
    <path id="221" class="fil191" d="M-477 -3795l-2413 3714 3877 4112 2413 -3714 -3877 -4112zm-5 -27l3903 4141 -2429 3739 -3903 -4141 2429 -3739z"/>
    <path id="222" class="fil192" d="M-480 -3813l-2424 3731 3894 4131 2424 -3731 -3894 -4131zm-5 -27l3920 4159 -2440 3757 -3920 -4159 2440 -3757z"/>
    <path id="223" class="fil193" d="M-483 -3831l-2435 3748 3911 4150 2435 -3748 -3911 -4150zm-5 -26l3937 4177 -2451 3773 -3937 -4177 2451 -3773z"/>
    <path id="224" class="fil194" d="M-487 -3849l-2445 3765 3929 4169 2445 -3765 -3929 -4169zm-5 -26l3956 4196 -2462 3790 -3956 -4196 2462 -3790z"/>
    <path id="225" class="fil195" d="M-490 -3866l-2456 3781 3946 4187 2456 -3781 -3946 -4187zm-5 -27l3973 4215 -2473 3807 -3973 -4215 2473 -3807z"/>
    <path id="226" class="fil196" d="M-493 -3884l-2468 3798 3964 4206 2468 -3798 -3964 -4206zm-5 -27l3990 4234 -2484 3824 -3990 -4234 2484 -3824z"/>
    <path id="227" class="fil197" d="M-496 -3902l-2479 3815 3981 4225 2479 -3815 -3981 -4225zm-5 -26l4007 4252 -2495 3840 -4007 -4252 2495 -3840z"/>
    <path id="228" class="fil197" d="M-500 -3919l-2489 3831 3999 4243 2489 -3831 -3999 -4243zm-5 -27l4025 4271 -2505 3857 -4025 -4271 2505 -3857z"/>
    <path id="229" class="fil198" d="M-503 -3937l-2500 3849 4016 4261 2500 -3849 -4016 -4261zm-5 -27l4043 4290 -2517 3874 -4043 -4290 2517 -3874z"/>
    <path id="230" class="fil199" d="M-506 -3955l-2512 3866 4034 4280 2512 -3866 -4034 -4280zm-5 -26l4060 4308 -2528 3890 -4060 -4308 2528 -3890z"/>
    <path id="231" class="fil200" d="M-510 -3973l-2522 3883 4052 4299 2522 -3883 -4052 -4299zm-5 -26l4078 4327 -2538 3907 -4078 -4327 2538 -3907z"/>
    <path id="232" class="fil201" d="M-513 -3990l-2533 3899 4069 4317 2533 -3899 -4069 -4317zm-5 -27l4095 4345 -2549 3925 -4095 -4345 2549 -3925z"/>
    <path id="233" class="fil202" d="M-516 -4008l-2544 3916 4086 4336 2544 -3916 -4086 -4336zm-5 -27l4113 4364 -2561 3942 -4113 -4364 2561 -3942z"/>
    <path id="234" class="fil203" d="M-520 -4026l-2554 3933 4104 4355 2554 -3933 -4104 -4355zm-5 -26l4131 4382 -2571 3958 -4131 -4382 2571 -3958z"/>
    <path id="235" class="fil203" d="M-523 -4043l-2566 3949 4122 4373 2566 -3949 -4122 -4373zm-5 -27l4148 4401 -2582 3975 -4148 -4401 2582 -3975z"/>
    <path id="236" class="fil204" d="M-526 -4061l-2577 3966 4139 4392 2577 -3966 -4139 -4392zm-5 -27l4165 4420 -2593 3992 -4165 -4420 2593 -3992z"/>
    <path id="237" class="fil205" d="M-530 -4079l-2587 3983 4157 4411 2587 -3983 -4157 -4411zm-5 -26l4184 4438 -2604 4008 -4184 -4438 2604 -4008z"/>
    <path id="238" class="fil206" d="M-533 -4096l-2598 3999 4174 4429 2598 -3999 -4174 -4429zm-5 -27l4201 4457 -2615 4025 -4201 -4457 2615 -4025z"/>
    <path id="239" class="fil206" d="M-536 -4114l-2610 4017 4192 4447 2610 -4017 -4192 -4447zm-5 -27l4218 4476 -2626 4042 -4218 -4476 2626 -4042z"/>
    <path id="240" class="fil207" d="M-540 -4132l-2620 4034 4210 4466 2620 -4034 -4210 -4466zm-4 -26l4235 4494 -2637 4058 -4235 -4494 2637 -4058z"/>
    <path id="241" class="fil208" d="M-543 -4150l-2631 4051 4227 4485 2631 -4051 -4227 -4485zm-5 -26l4253 4513 -2647 4075 -4253 -4513 2647 -4075z"/>
    <path id="242" class="fil209" d="M-546 -4167l-2642 4067 4244 4503 2642 -4067 -4244 -4503zm-5 -27l4271 4532 -2659 4092 -4271 -4532 2659 -4092z"/>
    <path id="243" class="fil210" d="M-549 -4185l-2654 4084 4262 4522 2654 -4084 -4262 -4522zm-5 -27l4288 4550 -2670 4110 -4288 -4550 2670 -4110z"/>
    <path id="244" class="fil211" d="M-553 -4203l-2664 4101 4280 4541 2664 -4101 -4280 -4541zm-5 -26l4306 4568 -2680 4126 -4306 -4568 2680 -4126z"/>
    <path id="245" class="fil212" d="M-556 -4220l-2675 4117 4297 4559 2675 -4117 -4297 -4559zm-5 -27l4323 4587 -2691 4143 -4323 -4587 2691 -4143z"/>
    <path id="246" class="fil212" d="M-559 -4238l-2686 4134 4314 4578 2686 -4134 -4314 -4578zm-5 -27l4341 4606 -2703 4160 -4341 -4606 2703 -4160z"/>
    <path id="247" class="fil213" d="M-563 -4256l-2696 4151 4332 4597 2696 -4151 -4332 -4597zm-5 -26l4359 4624 -2713 4176 -4359 -4624 2713 -4176z"/>
    <path id="248" class="fil214" d="M-566 -4274l-2708 4168 4350 4616 2708 -4168 -4350 -4616zm-5 -26l4376 4643 -2724 4193 -4376 -4643 2724 -4193z"/>
    <path id="249" class="fil215" d="M-569 -4291l-2719 4185 4367 4633 2719 -4185 -4367 -4633zm-5 -27l4393 4662 -2735 4210 -4393 -4662 2735 -4210z"/>
    <path id="250" class="fil216" d="M-573 -4309l-2729 4202 4385 4652 2729 -4202 -4385 -4652zm-5 -27l4411 4681 -2745 4227 -4411 -4681 2745 -4227z"/>
    <path id="251" class="fil217" d="M-576 -4327l-2740 4219 4402 4671 2740 -4219 -4402 -4671zm-5 -26l4429 4699 -2757 4243 -4429 -4699 2757 -4243z"/>
    <path id="252" class="fil218" d="M-579 -4344l-2752 4235 4420 4689 2752 -4235 -4420 -4689zm-5 -27l4446 4718 -2768 4260 -4446 -4718 2768 -4260z"/>
    <path id="253" class="fil219" d="M-583 -4362l-2762 4252 4438 4708 2762 -4252 -4438 -4708zm-5 -27l4464 4736 -2778 4278 -4464 -4736 2778 -4278z"/>
    <path id="254" class="fil220" d="M-586 -4380l-2773 4269 4455 4727 2773 -4269 -4455 -4727zm-5 -26l4481 4754 -2789 4294 -4481 -4754 2789 -4294z"/>
    <path id="255" class="fil221" d="M-589 -4398l-2784 4286 4472 4746 2784 -4286 -4472 -4746zm-3 -17l4490 4764 -2796 4302 -4490 -4764 2796 -4302z"/>
   </g>
  </g>
  <g>
   <path class="fil222" d="M1105 1235c82,19 61,59 222,41 66,-7 93,-33 129,-81 12,-16 13,-30 22,-47 100,0 198,81 204,81 47,1 108,-116 127,-158 15,-30 13,-45 13,-87 16,4 18,7 35,12 54,16 116,37 156,77 26,28 15,28 65,28 60,-89 52,-170 29,-268 42,10 89,39 125,62 1,1 2,2 3,3l88 57c26,19 21,24 58,24 50,-75 -25,-318 -86,-387 -76,-86 -209,-188 -336,-170 -140,21 -610,105 -678,71 -13,-6 -14,-9 -26,-15 -78,-37 -158,-74 -242,-101 -12,-4 -27,-7 -37,-10l-73 -14c-91,-11 -136,-25 -96,119 9,31 30,113 30,145 -46,11 -91,39 -131,62 -34,19 -71,5 -114,2 -187,-10 -291,22 -449,105 0,62 29,63 63,95 35,34 141,122 155,166l-37 119c-36,41 -120,31 -198,286 -8,26 -14,31 -19,62 -4,20 -5,48 -5,77 60,14 137,-11 202,2 31,6 28,9 66,9 15,62 126,223 169,280l91 96c22,17 27,26 53,40 80,44 176,77 269,93 165,28 342,12 513,35 97,13 252,7 347,-6 34,-4 50,-5 85,-8 29,-2 46,-11 74,-19 139,-41 193,-123 257,-239 25,-44 62,-133 31,-178 -25,2 -19,5 -38,20l-101 74c-29,20 -128,81 -162,61 -4,-3 -28,-21 -33,-26 -12,-10 -18,-19 -27,-30 -13,-17 -42,-55 -65,-59 -57,-9 -74,97 -128,111 -32,-22 -74,-73 -99,-105l-26 -32c-29,-33 -31,-61 -85,-61 -26,49 -33,111 -64,157 -52,-27 -92,-99 -127,-146 -80,-107 -119,-218 -169,-338 -13,-31 -22,-53 -30,-87z"/>
   <path class="fil223" d="M851 623c-46,15 -92,39 -133,62 -62,35 -45,5 -167,5 -106,0 -137,4 -244,33 -36,10 -137,55 -154,75 -9,27 79,87 113,122 18,19 38,37 58,59 12,13 44,55 52,70l-35 110c-18,49 -49,4 -129,127 -31,48 -120,236 -96,297 56,9 60,-7 126,-5 41,0 103,19 134,11 16,52 48,96 75,137 30,46 34,73 84,132 32,38 66,82 100,110 59,47 52,42 137,78 126,51 209,62 355,72 66,5 134,5 199,8 68,4 138,15 204,15 197,0 504,12 615,-158 41,-63 135,-190 111,-273 -23,0 -83,59 -103,72 -33,23 -72,47 -115,66 -94,42 -107,-3 -167,-68 -17,-18 -25,-33 -63,-33l-43 61c-67,83 -59,62 -160,-47 -22,-25 -63,-100 -98,-105 -19,24 -33,105 -58,144 -11,17 -4,9 -18,20 -82,-30 -242,-313 -285,-434 -21,-61 -49,-120 -65,-180 75,30 78,65 205,65 131,0 148,-69 186,-136 27,3 94,16 116,25 14,6 35,17 46,23 44,25 45,82 130,-53 46,-73 50,-89 49,-159 39,9 106,33 137,48 57,28 99,74 111,74 45,-1 52,-132 52,-178 0,-40 -16,-69 -25,-101 129,28 264,170 288,154 35,-42 -10,-199 -26,-244 -50,-150 -162,-239 -308,-286 -67,-22 -176,11 -250,22 -146,22 -247,36 -390,47 -49,4 -94,16 -133,-8 -100,-60 -314,-144 -450,-143 -39,53 25,192 32,267z"/>
   <path class="fil224" d="M816 2024c-1,-17 -8,-22 -10,-43 -2,-25 7,-35 10,-60 -60,-35 -152,-250 -51,-384 56,-73 35,-50 96,-97 63,-50 131,-98 236,-102 -9,-39 -79,-176 -53,-210 31,3 61,92 207,106 46,4 103,-1 130,-26 48,-45 38,-38 54,-109 34,-8 100,9 136,19 45,12 73,33 111,56 29,-18 52,-66 71,-102 65,-121 -83,-196 166,-103 105,38 92,52 137,74 48,-160 5,-177 -24,-246 -40,-96 221,55 246,69 24,14 43,35 66,46 8,-54 -29,-175 -50,-219 -57,-118 -208,-232 -326,-223l-245 38c-74,10 -172,26 -245,29 -91,3 -167,16 -257,23 -155,11 -464,122 -594,238 -53,47 -92,83 -138,141 -76,96 -137,271 -128,429 5,89 27,152 54,225 33,91 51,88 75,135 42,82 148,217 232,257 21,9 85,31 94,39z"/>
   <path class="fil225" d="M954 2022c-23,-6 -54,-20 -72,-33l-39 -37c-13,-11 -4,-6 -18,-11 -13,18 -14,30 -8,54 13,53 70,56 155,72 68,14 213,22 286,19 -7,-8 -5,-4 -13,-12l-14 -13c33,14 34,27 78,29 36,1 71,3 107,6 74,7 139,9 217,9 -1,-1 -3,-5 -4,-4l-13 -13c-18,-16 -28,-20 -43,-44 -55,-84 -70,-206 -3,-259 -62,99 -36,198 32,276 47,53 48,48 145,39 53,-5 131,-4 167,-32 -25,-12 -59,-62 -73,-100 -13,-35 -16,-76 -6,-114 0,0 6,-16 6,-17l11 -15c-22,75 -23,122 19,185 55,83 70,61 137,32 93,-40 112,-105 165,-179 12,-16 35,-57 40,-78 -18,8 -26,22 -44,33 -57,37 -92,58 -159,81 -49,17 -75,-4 -106,-32 -41,-35 -30,-28 -59,-63l-26 -21c-15,33 -39,56 -64,82 -35,36 -61,37 -97,3 -14,-14 -20,-22 -33,-37l-111 -114c-1,1 -4,6 -4,8 -3,7 -5,14 -8,21 -4,15 -8,27 -16,43 -54,116 -93,49 -150,-13 -20,-22 -61,-71 -73,-101 -46,6 -139,65 -132,172 3,45 18,80 35,117 9,18 16,35 26,50 13,18 25,31 35,48 -43,-14 -217,-246 -32,-372l37 -21c1,-1 3,-2 4,-3l11 -8c-7,-23 -27,-51 -40,-73 -15,-24 -27,-46 -39,-72l-64 -156c-77,8 -159,57 -212,94 -151,106 -193,272 -96,417 50,75 91,103 158,157z"/>
   <path class="fil222" d="M1746 1451c0,82 -5,62 20,138 34,102 163,156 247,106 17,-10 42,-41 52,-60 82,-147 43,-317 -26,-460 -17,-35 -57,-126 -101,-126 -28,0 -40,67 -50,95 -36,91 -59,115 -103,194 -14,26 -39,77 -39,113z"/>
   <path class="fil223" d="M1754 1462c0,70 9,121 50,176 44,58 186,117 254,-15 75,-146 47,-251 -13,-402 -18,-45 -56,-156 -115,-161 -6,10 -45,127 -87,202 -26,46 -89,138 -89,200z"/>
   <path class="fil226" d="M1950 1119c-15,20 -46,108 -64,140 -25,44 -51,80 -74,129 -51,106 -12,247 92,271 84,20 103,-23 129,-72 23,-42 37,-112 30,-168 -10,-75 -74,-266 -113,-300z"/>
   <path class="fil223" d="M829 825c-13,59 94,90 160,113 32,11 205,64 227,35 31,-44 -127,-98 -159,-109 -58,-20 -166,-62 -228,-39z"/>
   <path class="fil223" d="M1925 617c18,25 42,17 71,29 15,6 55,35 67,24 0,0 21,-5 -7,-30 -23,-20 -89,-38 -112,-38 -12,0 -17,2 -19,15z"/>
  </g>
 </g>
</svg>
